<svg width="119" height="40" fill="none" xmlns="http://www.w3.org/2000/svg"><path d="M29.38 13.832H15.557v4.075h9.828c-.491 5.743-5.283 8.275-9.767 8.275-5.774 0-10.812-4.57-10.812-10.93C4.807 9.015 9.6 4.2 15.62 4.2c4.669 0 7.372 2.964 7.372 2.964l2.825-2.964S22.131.123 15.435.123C6.895.062.323 7.286.323 15.13c0 7.657 6.204 15.128 15.357 15.128 8.048 0 13.945-5.495 13.945-13.708 0-1.73-.246-2.717-.246-2.717z" fill="#8C98A4"/><path fill-rule="evenodd" clip-rule="evenodd" d="M30.915 20.44c0-5.188 4.054-9.634 9.706-9.634 4.669 0 9.706 3.335 9.767 9.757 0 5.68-4.3 9.694-9.644 9.694-5.898 0-9.829-4.507-9.829-9.818zm15.173.123c0-3.582-2.641-5.867-5.406-5.867-3.133 0-5.528 2.47-5.467 5.805 0 3.458 2.396 5.928 5.467 5.928 2.826 0 5.406-2.285 5.406-5.866zM52.047 20.44c0-5.188 4.054-9.634 9.706-9.634 4.669 0 9.706 3.335 9.767 9.757 0 5.68-4.3 9.694-9.644 9.694-5.898 0-9.829-4.507-9.829-9.818zm15.173.123c0-3.582-2.641-5.867-5.406-5.867-3.133 0-5.528 2.47-5.467 5.805 0 3.458 2.396 5.928 5.467 5.928 2.826 0 5.406-2.285 5.406-5.866zM73.179 20.563c0-5.126 4.054-9.695 9.276-9.695 2.273 0 3.993.864 5.099 2.223v-1.667h4.054v17.475c0 6.854-3.932 10.127-9.092 10.127-4.73 0-7.371-2.902-8.661-5.681l3.747-1.544c.553 1.235 2.027 3.458 4.976 3.458 3.071 0 5.098-2.038 5.098-5.372v-1.914c-1.167 1.296-2.58 2.346-5.344 2.346-4.423 0-9.153-3.952-9.153-9.756zm14.805.061c0-3.705-2.642-5.928-5.16-5.928-2.703 0-5.345 2.162-5.406 5.99 0 3.52 2.58 5.805 5.344 5.805 2.641 0 5.222-2.038 5.222-5.867zM100.761 20.5c0-5.804 4.116-9.694 9.03-9.694 3.809 0 6.696 2.594 7.986 5.558l.676 1.605-12.962 5.434c.799 1.482 2.027 2.964 4.73 2.964 2.396 0 3.87-1.297 4.73-2.655l3.379 2.285c-1.474 1.976-4.054 4.26-8.109 4.26-4.853 0-9.46-3.643-9.46-9.756zm12.777-3.828c-.614-1.173-1.842-2.1-3.624-2.1-2.764 0-5.467 2.903-4.976 5.744l8.6-3.644z" fill="#8C98A4"/><path d="M94.618 29.702h4.239V1.05h-4.239v28.652z" fill="#8C98A4"/></svg>