<svg width="119" height="33" fill="none" xmlns="http://www.w3.org/2000/svg"><path fill-rule="evenodd" clip-rule="evenodd" d="M13.489 30.822c-.683.07-1.376.14-2.085.228L5.713 14.586v17.165a71.388 71.388 0 0 0-5.098.7V.984h4.742l6.462 17.864V.984h5.039v29.424c-1.114.183-2.227.297-3.37.414zM30.2 12.482c1.178-.028 2.329-.056 3.197-.056v4.904c-2.194 0-4.802 0-6.699.117v7.298c.924-.056 1.854-.117 2.787-.18 2.003-.132 4.025-.266 6.046-.346v4.73l-13.812 1.05V.984H35.53v4.904h-8.833v6.655c1.002 0 2.267-.03 3.502-.06zM48.87 5.947h5.157s0-4.962.06-4.962H38.732v4.962h5.157v22.652c1.6-.058 3.32-.058 4.98-.058V5.946zm13.279 6.247h6.817v4.904h-6.817v11.15h-4.92V.985h13.93v4.904h-9.01v6.305zm22.301 11.97c-1.714-.1-3.442-.2-5.17-.235V.984H74.3V28.54c4.565.117 9.01.35 13.457.642v-4.846c-1.095-.046-2.199-.11-3.308-.174zm9.199 5.477c1.068.063 2.153.128 3.238.242V.985h-4.92v28.548c.554.04 1.116.074 1.682.108zm18.71-13.71L118.701.983h-5.513l-3.498 8.231-3.26-8.231h-5.335l5.809 14.77-6.402 14.362c.711.093 1.422.168 2.134.243 1.067.112 2.134.224 3.201.4l3.675-8.35 3.557 9.108c.664.102 1.322.212 1.976.32 1.216.203 2.423.404 3.656.556l-6.343-16.464z" fill="#8C98A4"/></svg>