<svg width="136" height="40" fill="none" xmlns="http://www.w3.org/2000/svg"><path d="M24.981 3.902c-.54-1.772-2.433-2.726-4.19-2.18-1.757.545-2.704 2.452-2.163 4.224l8.651 26.846c.609 1.636 2.366 2.59 4.055 2.113 1.758-.545 2.84-2.385 2.299-4.157 0-.068-8.652-26.846-8.652-26.846zM11.6 8.33c-.542-1.77-2.434-2.725-4.191-2.18-1.758.546-2.704 2.453-2.163 4.225l8.651 26.846c.608 1.636 2.366 2.59 4.055 2.113 1.757-.546 2.839-2.385 2.298-4.157 0-.068-8.65-26.846-8.65-26.846z" fill="#8C98A4"/><path d="M35.93 26.183c1.758-.545 2.704-2.453 2.163-4.224-.54-1.772-2.433-2.726-4.19-2.18L7.206 28.431c-1.622.613-2.568 2.385-2.095 4.088.54 1.771 2.365 2.862 4.123 2.317.135 0 26.696-8.654 26.696-8.654z" fill="#8C98A4"/><path d="M12.748 33.746c1.757-.545 3.988-1.294 6.353-2.112-.54-1.771-1.284-4.02-2.095-6.405l-6.353 2.112 2.095 6.405zM26.198 29.317c2.433-.817 4.663-1.499 6.353-2.112-.54-1.771-1.284-4.02-2.095-6.405l-6.353 2.112 2.095 6.405zM31.537 12.624c1.758-.545 2.704-2.453 2.163-4.225-.54-1.771-2.433-2.725-4.19-2.18L2.88 14.94C1.258 15.554.312 17.325.785 19.03c.54 1.84 2.366 2.93 4.123 2.316.068 0 26.63-8.721 26.63-8.721z" fill="#8C98A4"/><path d="M8.423 20.187c1.757-.545 3.987-1.295 6.353-2.112-.811-2.453-1.487-4.702-2.095-6.405l-6.354 2.112 2.096 6.405zM21.805 15.826c2.433-.818 4.663-1.499 6.353-2.112-.811-2.453-1.487-4.702-2.095-6.405L19.709 9.42l2.096 6.405zM62.898 10.988c1.149.545 1.284.886.338 2.658-.947 1.84-1.15 1.907-2.366 1.43-1.487-.613-3.312-1.09-4.528-1.09-1.96 0-3.244.682-3.244 1.772 0 3.543 11.287 1.635 11.287 9.267 0 3.815-3.245 6.337-8.11 6.337-2.57 0-5.746-.886-7.908-1.976-1.082-.546-1.15-.886-.203-2.726.81-1.567 1.081-1.772 2.23-1.295 1.892.818 4.19 1.431 5.813 1.431 1.824 0 2.973-.75 2.973-1.84 0-3.474-11.49-1.84-11.49-9.198 0-3.884 3.245-6.541 8.043-6.541 2.298.204 5.205.885 7.165 1.771zM72.022 1.994V30.34c0 .408-.473.885-1.082.885h-2.973c-.676 0-1.082-.477-1.082-.886V1.995c0-1.43.406-1.499 2.569-1.499 2.433-.068 2.568.136 2.568 1.5z" fill="#8C98A4"/><path fill-rule="evenodd" clip-rule="evenodd" d="M92.974 30.067V17.87c0-5.315-3.582-8.449-9.26-8.449-2.568 0-5.406.818-7.434 2.18-1.082.682-1.082 1.023 0 2.726 1.149 1.704 1.352 1.772 2.433 1.158 1.352-.817 3.041-1.362 4.46-1.362 2.975 0 4.732 1.362 4.732 3.611v1.43c-1.42-.612-3.177-.953-5.07-.953-5.068 0-8.38 2.726-8.38 6.814 0 3.816 2.974 6.405 7.367 6.405 2.298 0 4.596-.954 6.15-2.726L87.906 30c-.068.681.405 1.158 1.081 1.158h2.906c.609 0 1.082-.409 1.082-1.09zM82.43 27.34c-1.825 0-3.041-.954-3.041-2.384 0-1.772 1.825-3.135 4.528-3.135 1.284 0 2.771.205 3.92.682v1.907c-1.149 1.84-3.176 2.93-5.407 2.93z" fill="#8C98A4"/><path d="M113.047 11.056c1.082.614 1.082.954-.067 2.794-1.082 1.704-1.284 1.84-2.501 1.227-.879-.477-2.366-.886-3.515-.886-3.717 0-6.15 2.453-6.15 6.2 0 3.884 2.433 6.474 6.15 6.474 1.285 0 2.907-.477 3.921-1.09 1.081-.614 1.284-.614 2.433 1.09 1.013 1.567 1.013 1.907.067 2.589-1.622 1.158-4.258 2.044-6.556 2.044-6.826 0-11.422-4.43-11.422-11.039s4.596-10.97 11.49-10.97c2.163-.068 4.596.614 6.15 1.567zM135.419 28.5c.878 1.09.54 1.499-1.622 2.248-2.163.818-2.501.75-3.245-.272l-6.15-8.245-2.771 2.657v5.383c0 .41-.473.886-1.082.886h-2.973c-.676 0-1.082-.477-1.082-.886V1.994c0-1.43.406-1.499 2.569-1.499 2.5 0 2.568.205 2.568 1.5v16.08l8.381-8.109c.946-.885 1.419-.817 3.109.273 1.824 1.158 1.96 1.499 1.081 2.385l-6.218 6.132 7.435 9.744z" fill="#8C98A4"/></svg>