<svg width="153" height="177" fill="none" xmlns="http://www.w3.org/2000/svg"><path opacity=".1" fill-rule="evenodd" clip-rule="evenodd" d="M153 4.5a4.5 4.5 0 1 1-9 0 4.5 4.5 0 0 1 9 0zM148.5 33a4.5 4.5 0 1 0 0-9 4.5 4.5 0 0 0 0 9zm4.5 19.5a4.5 4.5 0 1 1-9 0 4.5 4.5 0 0 1 9 0zM148.5 81a4.5 4.5 0 1 0 0-9 4.5 4.5 0 0 0 0 9zm4.5 19.5a4.5 4.5 0 1 1-9 0 4.5 4.5 0 0 1 9 0zm-4.5 28.5a4.5 4.5 0 1 0 0-9 4.5 4.5 0 0 0 0 9zm4.5 19.5a4.5 4.5 0 1 1-9 0 4.5 4.5 0 0 1 9 0zM4.5 177a4.5 4.5 0 1 0 0-9 4.5 4.5 0 0 0 0 9zm28.5-4.5a4.5 4.5 0 1 1-9 0 4.5 4.5 0 0 1 9 0zm19.5 4.5a4.5 4.5 0 1 0 0-9 4.5 4.5 0 0 0 0 9zm28.5-4.5a4.5 4.5 0 1 1-9 0 4.5 4.5 0 0 1 9 0zm19.5 4.5a4.5 4.5 0 1 0 0-9 4.5 4.5 0 0 0 0 9zm28.5-4.5a4.5 4.5 0 1 1-9 0 4.5 4.5 0 0 1 9 0zm24 0a4.5 4.5 0 1 1-9 0 4.5 4.5 0 0 1 9 0zM124.5 153a4.5 4.5 0 1 0 0-9 4.5 4.5 0 0 0 0 9zm-19.5-4.5a4.5 4.5 0 1 1-9 0 4.5 4.5 0 0 1 9 0zM76.5 153a4.5 4.5 0 1 0 0-9 4.5 4.5 0 0 0 0 9zM57 148.5a4.5 4.5 0 1 1-9 0 4.5 4.5 0 0 1 9 0zM28.5 153a4.5 4.5 0 1 0 0-9 4.5 4.5 0 0 0 0 9zM9 148.5a4.5 4.5 0 1 1-9 0 4.5 4.5 0 0 1 9 0zm120-24a4.5 4.5 0 1 1-9 0 4.5 4.5 0 0 1 9 0zm-28.5 4.5a4.5 4.5 0 1 0 0-9 4.5 4.5 0 0 0 0 9zM81 124.5a4.5 4.5 0 1 1-9 0 4.5 4.5 0 0 1 9 0zM52.5 129a4.5 4.5 0 1 0 0-9 4.5 4.5 0 0 0 0 9zM33 124.5a4.5 4.5 0 1 1-9 0 4.5 4.5 0 0 1 9 0zM4.5 129a4.5 4.5 0 1 0 0-9 4.5 4.5 0 0 0 0 9zm120-24a4.5 4.5 0 1 0 0-9 4.5 4.5 0 0 0 0 9zm-19.5-4.5a4.5 4.5 0 1 1-9 0 4.5 4.5 0 0 1 9 0zM76.5 105a4.5 4.5 0 1 0 0-9 4.5 4.5 0 0 0 0 9zM57 100.5a4.5 4.5 0 1 1-9 0 4.5 4.5 0 0 1 9 0zM28.5 105a4.5 4.5 0 1 0 0-9 4.5 4.5 0 0 0 0 9zM9 100.5a4.5 4.5 0 1 1-9 0 4.5 4.5 0 0 1 9 0zm120-24a4.5 4.5 0 1 1-9 0 4.5 4.5 0 0 1 9 0zM100.5 81a4.5 4.5 0 1 0 0-9 4.5 4.5 0 0 0 0 9zM81 76.5a4.5 4.5 0 1 1-9 0 4.5 4.5 0 0 1 9 0zM52.5 81a4.5 4.5 0 1 0 0-9 4.5 4.5 0 0 0 0 9zM33 76.5a4.5 4.5 0 1 1-9 0 4.5 4.5 0 0 1 9 0zM4.5 81a4.5 4.5 0 1 0 0-9 4.5 4.5 0 0 0 0 9zm120-24a4.5 4.5 0 1 0 0-9 4.5 4.5 0 0 0 0 9zM105 52.5a4.5 4.5 0 1 1-9 0 4.5 4.5 0 0 1 9 0zM76.5 57a4.5 4.5 0 1 0 0-9 4.5 4.5 0 0 0 0 9zM57 52.5a4.5 4.5 0 1 1-9 0 4.5 4.5 0 0 1 9 0zM28.5 57a4.5 4.5 0 1 0 0-9 4.5 4.5 0 0 0 0 9zM9 52.5a4.5 4.5 0 1 1-9 0 4.5 4.5 0 0 1 9 0zm120-24a4.5 4.5 0 1 1-9 0 4.5 4.5 0 0 1 9 0zM100.5 33a4.5 4.5 0 1 0 0-9 4.5 4.5 0 0 0 0 9zM81 28.5a4.5 4.5 0 1 1-9 0 4.5 4.5 0 0 1 9 0zM52.5 33a4.5 4.5 0 1 0 0-9 4.5 4.5 0 0 0 0 9zM33 28.5a4.5 4.5 0 1 1-9 0 4.5 4.5 0 0 1 9 0zM4.5 33a4.5 4.5 0 1 0 0-9 4.5 4.5 0 0 0 0 9zm120-24a4.5 4.5 0 1 0 0-9 4.5 4.5 0 0 0 0 9zM105 4.5a4.5 4.5 0 1 1-9 0 4.5 4.5 0 0 1 9 0zM76.5 9a4.5 4.5 0 1 0 0-9 4.5 4.5 0 0 0 0 9zM57 4.5a4.5 4.5 0 1 1-9 0 4.5 4.5 0 0 1 9 0zM28.5 9a4.5 4.5 0 1 0 0-9 4.5 4.5 0 0 0 0 9zM9 4.5a4.5 4.5 0 1 1-9 0 4.5 4.5 0 0 1 9 0z" fill="#5A7184"/></svg>