<svg width="16" height="16" fill="none" xmlns="http://www.w3.org/2000/svg"><path d="M14.75.375H1.215c-.598 0-1.09.527-1.09 1.16V15c0 .633.492 1.125 1.09 1.125H14.75c.598 0 1.125-.492 1.125-1.125V1.535c0-.633-.527-1.16-1.125-1.16zm-9.879 13.5h-2.32V6.387h2.32v7.488zm-1.16-8.543c-.773 0-1.371-.598-1.371-1.336 0-.738.598-1.371 1.37-1.371.74 0 1.337.633 1.337 1.371S4.449 5.332 3.71 5.332zm9.914 8.543H11.27v-3.656c0-.844 0-1.969-1.196-1.969-1.23 0-1.406.95-1.406 1.934v3.691h-2.32V6.387h2.215v1.02h.035c.316-.598 1.09-1.231 2.214-1.231 2.356 0 2.813 1.582 2.813 3.586v4.113z" fill="#5A7184"/></svg>