<svg width="35" height="35" fill="none" xmlns="http://www.w3.org/2000/svg"><path d="M17.5.063C7.867.063.062 7.938.062 17.5c0 9.633 7.805 17.438 17.438 17.438 9.563 0 17.438-7.805 17.438-17.438C34.938 7.937 27.061.062 17.5.062zm11.46 8.085a14.452 14.452 0 0 1 3.376 9.282c-.492-.14-5.414-1.125-10.336-.492-.422-.985-.773-1.829-1.336-2.954 5.555-2.25 8.016-5.414 8.297-5.836zm-1.616-1.757c-.282.421-2.532 3.445-7.805 5.414-2.46-4.5-5.133-8.157-5.555-8.72 4.711-1.124 9.704.071 13.36 3.306zM11.102 4.07c.421.562 3.093 4.218 5.554 8.648-6.96 1.828-13.078 1.828-13.781 1.758.984-4.57 4.078-8.438 8.227-10.407zm-8.508 13.5v-.493c.633.07 7.875.14 15.258-2.11.492.845.843 1.688 1.265 2.532-5.414 1.547-10.336 5.906-12.726 9.984C4 24.883 2.594 21.367 2.594 17.57zm5.695 11.741c1.617-3.164 5.836-7.312 11.813-9.351 2.109 5.414 2.953 9.984 3.164 11.32a14.895 14.895 0 0 1-14.977-1.968zm17.508.563c-.14-.844-.985-5.203-2.883-10.617 4.64-.703 8.719.492 9.281.633a15.182 15.182 0 0 1-6.398 9.984z" fill="#1565D8"/></svg>