<svg width="32" height="33" fill="none" xmlns="http://www.w3.org/2000/svg"><path d="M16 8.414c-4.5 0-8.086 3.656-8.086 8.086 0 4.5 3.586 8.086 8.086 8.086 4.43 0 8.086-3.586 8.086-8.086 0-4.43-3.656-8.086-8.086-8.086zm0 13.36a5.266 5.266 0 0 1-5.273-5.274c0-2.883 2.32-5.203 5.273-5.203a5.191 5.191 0 0 1 5.203 5.203c0 2.953-2.32 5.273-5.203 5.273zM26.266 8.132a1.89 1.89 0 0 0-1.899-1.899 1.89 1.89 0 0 0-1.898 1.899 1.89 1.89 0 0 0 1.898 1.898 1.89 1.89 0 0 0 1.899-1.898zm5.343 1.898c-.14-2.531-.703-4.781-2.53-6.61C27.25 1.595 25 1.032 22.468.892 19.867.75 12.062.75 9.46.89c-2.531.14-4.711.703-6.61 2.53C1.024 5.25.462 7.5.322 10.032.18 12.633.18 20.437.32 23.04c.14 2.531.702 4.711 2.53 6.61 1.899 1.828 4.079 2.39 6.61 2.53 2.601.141 10.406.141 13.008 0 2.531-.14 4.781-.702 6.61-2.53 1.827-1.899 2.39-4.079 2.53-6.61.141-2.602.141-10.406 0-13.008zm-3.375 15.75c-.492 1.407-1.617 2.461-2.953 3.024-2.11.843-7.031.633-9.281.633-2.32 0-7.242.21-9.281-.633a5.33 5.33 0 0 1-3.024-3.024c-.843-2.039-.632-6.96-.632-9.281 0-2.25-.211-7.172.632-9.281A5.423 5.423 0 0 1 6.72 4.266c2.039-.844 6.96-.633 9.281-.633 2.25 0 7.172-.211 9.281.633 1.336.492 2.39 1.617 2.953 2.953.844 2.11.633 7.031.633 9.281 0 2.32.211 7.242-.633 9.281z" fill="#1565D8"/></svg>