<svg width="37" height="31" fill="none" xmlns="http://www.w3.org/2000/svg"><path d="M32.773 8.188c1.407-1.055 2.672-2.32 3.657-3.797a13.838 13.838 0 0 1-4.22 1.125c1.548-.914 2.673-2.32 3.235-4.079a15.592 15.592 0 0 1-4.64 1.829A7.383 7.383 0 0 0 25.39.946a7.382 7.382 0 0 0-7.383 7.382c0 .563.07 1.125.21 1.688A21.42 21.42 0 0 1 2.962 2.28c-.633 1.055-.984 2.32-.984 3.727a7.264 7.264 0 0 0 3.304 6.117c-1.195-.07-2.39-.352-3.375-.914v.07c0 3.586 2.532 6.54 5.907 7.242-.563.141-1.266.282-1.899.282-.492 0-.914-.07-1.406-.14.914 2.952 3.656 5.062 6.89 5.132-2.53 1.969-5.695 3.164-9.14 3.164-.633 0-1.196-.07-1.758-.14 3.234 2.109 7.102 3.304 11.32 3.304 13.57 0 20.953-11.18 20.953-20.953v-.985z" fill="#1565D8"/></svg>