<svg width="22" height="18" fill="none" xmlns="http://www.w3.org/2000/svg"><path fill-rule="evenodd" clip-rule="evenodd" d="M1.09 2.2h19.82c.602 0 1.09-.492 1.09-1.1 0-.608-.488-1.1-1.09-1.1H1.09C.488 0 0 .492 0 1.1c0 .608.488 1.1 1.09 1.1zm0 7.748h19.82c.602 0 1.09-.492 1.09-1.1 0-.607-.488-1.1-1.09-1.1H1.09c-.602 0-1.09.493-1.09 1.1 0 .608.488 1.1 1.09 1.1zm19.82 7.749H1.09c-.602 0-1.09-.493-1.09-1.1 0-.608.488-1.1 1.09-1.1h19.82c.602 0 1.09.492 1.09 1.1 0 .607-.488 1.1-1.09 1.1z" fill="#3A4C66"/></svg>